HIERARCHY
ROOT Hips
{
  OFFSET 90.7885 88.945 -76.2838
  CHANNELS 6 Xposition Yposition Zposition Zrotation Xrotation Yrotation
  JOINT LeftUpLeg
  {
    OFFSET 8.64259 1.95398 -2.38835
    CHANNELS 3 Zrotation Xrotation Yrotation
    JOINT LeftLeg
    {
      OFFSET 43.7702 0 0
      CHANNELS 3 Zrotation Xrotation Yrotation
      JOINT LeftFoot
      {
        OFFSET 40.6238 0 0
        CHANNELS 3 Zrotation Xrotation Yrotation
        JOINT LeftToeBase
        {
          OFFSET 12.7242 0 0
          CHANNELS 3 Zrotation Xrotation Yrotation
          End Site
          {
            OFFSET 0 0 0
          }
        }
      }
    }
  }
  JOINT RightUpLeg
  {
    OFFSET -8.2249 1.95398 -2.59336
    CHANNELS 3 Zrotation Xrotation Yrotation
    JOINT RightLeg
    {
      OFFSET 43.5653 0 0
      CHANNELS 3 Zrotation Xrotation Yrotation
      JOINT RightFoot
      {
        OFFSET 40.6238 0 0
        CHANNELS 3 Zrotation Xrotation Yrotation
        JOINT RightToeBase
        {
          OFFSET 12.7242 0 0
          CHANNELS 3 Zrotation Xrotation Yrotation
          End Site
          {
            OFFSET 0 0 0
          }
        }
      }
    }
  }
  JOINT Spine
  {
    OFFSET 0.165834 0.87714 6.61349
    CHANNELS 3 Zrotation Xrotation Yrotation
    JOINT Spine1
    {
      OFFSET 7.38963 1.71661e-005 0
      CHANNELS 3 Zrotation Xrotation Yrotation
      JOINT Spine2
      {
        OFFSET 11.9445 1.14441e-005 0
        CHANNELS 3 Zrotation Xrotation Yrotation
        JOINT Spine3
        {
          OFFSET 14.7254 4.19617e-005 0
          CHANNELS 3 Zrotation Xrotation Yrotation
          JOINT Spine4
          {
            OFFSET 10.9679 0 0
            CHANNELS 3 Zrotation Xrotation Yrotation
            JOINT RightShoulder
            {
              OFFSET 2.46616 -1.6653 3.69651
              CHANNELS 3 Zrotation Xrotation Yrotation
              JOINT RightArm
              {
                OFFSET 13.0012 0 0
                CHANNELS 3 Zrotation Xrotation Yrotation
                JOINT RightForeArm
                {
                  OFFSET 28.7848 1.52588e-005 0
                  CHANNELS 3 Zrotation Xrotation Yrotation
                  JOINT RightHand
                  {
                    OFFSET 26.5688 1.52588e-005 0
                    CHANNELS 3 Zrotation Xrotation Yrotation
                    End Site
                    {
                      OFFSET 0 0 0
                    }
                  }
                }
              }
            }
            JOINT LeftShoulder
            {
              OFFSET 2.38034 -1.29275 -3.7523
              CHANNELS 3 Zrotation Xrotation Yrotation
              JOINT LeftArm
              {
                OFFSET 16.3182 6.10352e-005 0
                CHANNELS 3 Zrotation Xrotation Yrotation
                JOINT LeftForeArm
                {
                  OFFSET 27.0901 0 0
                  CHANNELS 3 Zrotation Xrotation Yrotation
                  JOINT LeftHand
                  {
                    OFFSET 24.5451 1.52588e-005 0
                    CHANNELS 3 Zrotation Xrotation Yrotation
                    End Site
                    {
                      OFFSET 0 0 0
                    }
                  }
                }
              }
            }
            JOINT Neck
            {
              OFFSET 5.0226 -0.0266342 0
              CHANNELS 3 Zrotation Xrotation Yrotation
              JOINT Head
              {
                OFFSET 6.69363 2.86102e-005 0
                CHANNELS 3 Zrotation Xrotation Yrotation
                End Site
                {
                  OFFSET 0 0 0
                }
              }
            }
          }
        }
      }
    }
  }
}
MOTION
Frames:	18
Frame Time:	0.0416667
34.0036 99.063 27.9019 -150.914 -79.9526 -151.775 -176.829 -1.81892 89.6897 -20.7587 5.41153 -0.479999 75.4987 5.83953 -4.27694 12.2206 -1.58387 4.2141 169.398 -6.75408 85.444 -8.97144 -20.9457 -1.97812 70.7196 -6.09544 -1.41651 20.7964 -0.49679 2.612 0.310136 7.58719 -90.0275 11.6999 0.603985 -0.118127 0.0291384 0.598201 -0.144601 -22.5071 0.61156 0.068863 -2.4945 0.611559 0.0688541 90.6796 -30.9623 -105.065 42.0559 -18.2972 -4.87248 1.66817 -23.0839 -17.2544 -24.7645 -1.26027 -4.19357 -87.6202 -55.4497 83.1991 -19.0032 23.146 -16.8263 1.01346 2.29291 -7.22883 2.41334 -0.139822 -5.54948 5.19743 -0.646922 -0.554886 -9.99857 -0.679015 2.04421 
33.9248 98.9043 27.6038 -148.197 -80.7116 -149.113 -177.298 -0.442034 89.3506 -21.4679 6.33336 -0.0438154 75.5938 6.08418 -2.36454 13.059 -2.08828 4.69572 170.122 -5.8434 85.9027 -9.31601 -24.4616 -2.47805 70.653 -6.29436 -4.9621 20.7517 0.2445 1.16482 0.355416 7.43179 -90 12.0107 0.706679 -0.076864 0.339971 0.702609 -0.107894 -22.1967 0.697101 0.139077 -2.18404 0.697108 0.139095 90.5314 -31.341 -105.221 42.0858 -18.0203 -4.20853 3.69254 -22.137 -16.6325 -26.507 -0.409904 -8.34962 -87.9141 -55.4399 82.7815 -19.1821 22.6176 -16.1315 1.58813 4.37377 -7.4782 -0.837166 -0.105598 -5.64271 3.81902 -0.815583 -1.12089 -9.09437 -0.795416 2.94266 
33.8729 98.9035 27.5082 -149.234 -80.4187 -150.085 -177.171 -0.740644 89.4478 -21.4295 6.31282 -0.112622 75.9262 6.21615 -2.40358 13.086 -2.22372 4.8451 170.135 -6.14277 85.9743 -9.30711 -24.4623 -2.4708 70.7187 -6.36371 -5.26878 20.5772 0.0715113 1.53477 0.385325 7.48256 -89.9994 11.9092 0.766516 -0.0813594 0.238488 0.762196 -0.11503 -22.2984 0.755527 0.15278 -2.28579 0.75553 0.152782 90.5164 -31.4286 -105.219 41.9637 -18.0051 -4.24805 3.38127 -22.6969 -16.9484 -25.9062 -0.593917 -7.58469 -88.0559 -55.1074 82.5265 -19.4908 22.3049 -16.2266 1.79073 5.02238 -7.4039 -1.55228 -0.107521 -6.87221 3.82592 -0.728054 -0.835389 -8.7884 -0.713397 2.3358 
33.8309 98.9023 27.4291 -149.091 -80.3481 -150.002 -177.251 -0.800277 89.3693 -21.3279 6.23582 -0.0363422 75.7478 6.15553 -2.28134 13.2012 -1.94918 4.52929 170.15 -6.14779 85.965 -9.3371 -24.7631 -2.50771 70.6447 -6.32145 -5.37578 20.4474 0.354242 1.00741 0.390064 7.48338 -90.0241 11.9078 0.764311 -0.13023 0.237073 0.757839 -0.16375 -22.2999 0.768111 0.10551 -2.28724 0.768112 0.105512 90.7392 -31.1879 -104.869 41.9031 -17.7162 -4.24803 3.47354 -24.8906 -17.0738 -25.5923 -0.608425 -8.19739 -88.0634 -55.9738 82.6576 -18.6827 22.4867 -16.2234 1.6558 4.40551 -7.67693 -1.21711 -0.108036 -6.66102 3.94596 -0.755221 -0.475239 -9.27461 -0.818251 2.42975 
33.8332 98.9068 27.3336 -149.18 -80.4242 -150.114 -177.364 -0.654166 89.2743 -21.3834 6.16444 0.0726898 75.8429 6.16332 -2.49437 12.7289 -2.22648 4.87829 170.093 -6.00194 85.8929 -9.30775 -24.2692 -2.43586 70.5728 -6.23432 -4.65116 20.674 0.281726 1.10637 0.364353 7.47443 -90.0258 11.9256 0.71239 -0.128134 0.254827 0.706052 -0.159373 -22.2819 0.717962 0.0919079 -2.26925 0.717957 0.0918956 90.8527 -31.0178 -104.706 42.0713 -17.4208 -4.39138 3.34939 -26.9515 -17.2488 -24.9546 -0.797585 -7.84532 -87.9626 -56.2162 82.8387 -18.2572 22.748 -16.4223 1.43948 4.07887 -7.50628 -1.39156 -0.108678 -6.69112 4.42068 -0.714672 -0.322876 -9.65675 -0.814087 2.47195 
33.7949 98.9059 27.3366 -149.381 -80.2058 -150.305 -177.262 -0.87847 89.3479 -21.362 6.2099 -0.0226353 75.7457 6.1553 -2.20406 13.2261 -1.89766 4.46908 170.167 -6.2225 85.944 -9.33944 -24.4384 -2.53794 70.6553 -6.301 -5.01378 20.4896 0.130096 1.43619 0.376386 7.49768 -90.0277 11.8791 0.735499 -0.133996 0.208365 0.728897 -0.166251 -22.3285 0.741762 0.0932576 -2.31581 0.741771 0.0932603 90.7652 -31.007 -104.881 42.1606 -17.2069 -4.39214 3.25136 -26.4727 -16.9731 -24.2742 -0.633828 -8.68352 -87.9932 -55.9623 82.7549 -18.5961 22.66 -16.442 1.52772 4.26499 -7.50515 -1.39381 -0.109197 -6.75894 4.45968 -0.779965 -0.465195 -9.35049 -0.855636 2.61652 
33.7703 98.9171 27.3138 -149.329 -80.1183 -150.296 -177.23 -0.925933 89.3806 -21.392 5.99355 -0.0650413 75.7445 6.07348 -2.74391 13.0168 -2.31762 4.95671 170.144 -6.28543 85.9127 -9.34908 -24.5975 -2.55818 70.789 -6.39016 -5.25152 20.1581 0.178257 1.4025 0.357001 7.49829 -90.0131 11.8778 0.703796 -0.101615 0.207037 0.698641 -0.132506 -22.3296 0.701792 0.114614 -2.31698 0.701794 0.114609 90.4859 -31.1093 -105.392 42.0974 -16.833 -4.57599 3.58257 -26.3747 -16.2166 -24.9747 -0.604653 -8.74263 -87.7993 -55.8513 83.0099 -18.7068 22.6114 -16.3444 1.56187 4.05396 -7.559 -1.60698 -0.109269 -6.97996 4.53509 -0.732294 -0.517089 -9.43684 -0.806897 2.70857 
33.7258 98.9189 27.301 -150.077 -80.028 -150.921 -177.108 -1.05672 89.5633 -21.4134 6.40005 -0.0811354 75.8323 6.17122 -2.41362 12.8549 -2.20968 4.84926 170.218 -6.45438 86.0387 -9.32949 -24.1677 -2.54834 70.7106 -6.32699 -4.85193 20.3313 0.239706 1.25223 0.341748 7.52147 -90.0225 11.8315 0.669083 -0.116106 0.160687 0.663327 -0.14545 -22.3758 0.673045 0.0903595 -2.3632 0.673041 0.0903528 90.5233 -31.1147 -105.317 41.9705 -17.4164 -4.50497 3.36994 -26.5191 -16.9893 -25.3436 -0.868062 -7.29527 -87.64 -55.9211 83.2452 -18.4524 22.7154 -16.6002 1.46825 3.78344 -7.48162 -1.54992 -0.109314 -6.81408 4.76827 -0.620334 -0.357329 -9.32799 -0.695142 2.29645 
33.7371 98.8992 27.2648 -149.333 -79.9488 -150.262 -177.278 -1.02085 89.3605 -21.4527 5.8875 0.0355218 75.7266 6.09976 -2.59669 13.2456 -1.96376 4.54107 170.115 -6.36049 85.9177 -9.35934 -24.9299 -2.50056 70.335 -6.13247 -5.17893 20.9227 0.376773 0.872642 0.382495 7.48553 -90.0259 11.9035 0.748375 -0.132151 0.232714 0.741842 -0.164967 -22.3042 0.753486 0.098886 -2.29151 0.753494 0.0988927 90.6545 -30.7994 -105.172 42.3358 -17.2473 -4.26952 3.47864 -26.4402 -17.0548 -24.6235 -0.691682 -8.29982 -87.9568 -56.0641 82.8225 -18.5929 22.5203 -16.3415 1.572 4.03337 -7.54162 -1.63598 -0.109995 -6.94307 4.12707 -0.744249 0.0238276 -9.06498 -0.875363 2.19956 
33.667 98.925 27.3533 -150.976 -79.4443 -151.575 -176.946 -1.56054 89.861 -21.7235 6.3771 -0.0241162 76.0077 6.21109 -2.47484 12.8157 -2.18682 4.8272 170.259 -7.08713 86.184 -9.35226 -24.4004 -2.54507 70.4936 -6.21632 -4.87383 20.8327 0.225499 1.18653 0.376911 7.52459 -90.0846 11.8256 0.709812 -0.244391 0.154854 0.698365 -0.275406 -22.3819 0.75044 -0.0197468 -2.36921 0.750437 -0.0197664 90.8186 -30.5905 -104.923 42.3582 -17.423 -4.48128 3.53332 -25.7723 -16.9375 -24.3945 -0.663968 -8.26497 -87.891 -56.5159 82.9869 -18.0035 22.7186 -16.6064 1.37194 3.72467 -7.42144 -1.85771 -0.108374 -6.95653 3.97541 -0.519904 0.439682 -9.12403 -0.727371 2.19038 
33.678 98.8963 27.3528 -150.485 -79.2068 -151.458 -177.162 -1.84666 89.3555 -21.5024 5.69913 -0.0121875 75.8988 6.17829 -2.74074 13.1709 -2.27403 4.89431 169.835 -7.12048 85.6815 -9.38981 -25.7592 -2.45079 70.3232 -6.23575 -6.31057 20.898 -0.107745 1.83009 0.38755 7.49559 -90.0118 11.8833 0.765148 -0.105335 0.212547 0.75977 -0.138915 -22.3244 0.761427 0.129511 -2.31174 0.761435 0.129511 90.5812 -30.9382 -105.268 42.4661 -17.606 -4.24465 3.0574 -23.5799 -17.3132 -24.5325 -0.739368 -7.16559 -87.7745 -55.9051 83.0531 -18.4657 22.5776 -16.6006 1.50649 4.00784 -7.35757 -2.09781 -0.0973567 -7.35862 3.55082 -0.498893 -0.186396 -9.1253 -0.627221 2.65044 
33.5938 98.8714 27.4375 -150.976 -78.9412 -152.031 -176.949 -2.18248 89.4828 -21.5487 6.11776 -0.218323 75.9578 6.32106 -2.33618 13.1859 -2.23098 4.84525 169.865 -7.46276 85.6305 -9.43561 -25.4772 -2.58685 70.5524 -6.32956 -5.9014 20.6654 0.0916101 1.48086 0.386708 7.44903 -90.0187 11.9765 0.760057 -0.119628 0.305722 0.754061 -0.15297 -22.2312 0.760866 0.114342 -2.21855 0.760873 0.114352 90.7505 -30.8051 -104.981 42.5285 -17.5965 -4.50958 3.45222 -23.4794 -16.7394 -24.8579 -0.647906 -7.60636 -88.0271 -55.9633 82.7072 -18.4745 22.9946 -16.3623 1.19695 2.63164 -7.64642 -1.41635 -0.112788 -7.11723 2.75697 -0.283331 0.189156 -9.32518 -0.4782 2.59919 
33.4325 98.8833 27.617 -152.359 -78.2166 -153.343 -176.727 -3.01476 89.7325 -21.7262 6.15034 -0.251251 76.1097 6.33661 -2.72318 13.4313 -2.02572 4.59403 169.838 -8.3735 85.563 -9.47453 -25.0678 -2.69837 70.635 -6.27215 -4.79832 20.9527 0.436422 0.7495 0.353923 7.40581 -90.0708 12.063 0.670223 -0.214657 0.392221 0.660125 -0.243957 -22.1443 0.70375 -0.00329686 -2.13168 0.70375 -0.00330233 90.6362 -30.4516 -105.333 42.6566 -17.431 -3.98169 2.96037 -24.2864 -17.192 -25.3881 -1.04852 -5.67015 -87.8771 -56.4579 82.9968 -17.5284 24.2979 -16.428 0.417985 1.52147 -7.62684 -1.1957 -0.118619 -7.10553 1.69943 0.131962 1.22318 -9.77861 -0.21097 2.23563 
33.3125 98.862 27.8218 -155.154 -77.2479 -156.128 -176.509 -4.24232 89.8861 -21.9088 6.63651 -0.2421 76.4277 6.5612 -2.43867 13.7865 -2.50147 5.10029 169.538 -9.66414 85.3131 -9.47628 -25.2046 -2.674 71.0124 -6.54081 -5.16966 20.5665 0.232767 1.22157 0.354144 7.42092 -90.0937 12.0329 0.659911 -0.258983 0.362084 0.647863 -0.287782 -22.1744 0.707225 -0.0486723 -2.16174 0.707228 -0.048678 90.8872 -30.4589 -104.833 42.81 -16.8263 -3.99212 2.9546 -24.9972 -17.3586 -25.6514 -1.02587 -6.00735 -88.1381 -56.6747 82.6669 -17.2088 24.3736 -16.4648 0.41049 1.0791 -8.06367 -0.586748 -0.134465 -7.20023 1.04298 0.107464 1.48968 -9.76172 -0.299919 2.72065 
33.1556 98.8118 28.0034 -157.544 -75.7831 -158.522 -176.197 -5.70779 90.1207 -22.5336 6.21906 -0.268682 76.9835 6.6983 -3.32764 13.5804 -2.58487 5.21098 169.303 -11.2144 84.9967 -9.87651 -25.2476 -2.8258 71.57 -6.87701 -5.23175 20.1921 0.0456044 1.65397 0.345609 7.46451 -90.1193 11.9458 0.631018 -0.306031 0.274977 0.616948 -0.333518 -22.2614 0.693816 -0.10223 -2.24871 0.693829 -0.102228 90.6837 -30.5053 -105.22 42.7618 -16.2385 -3.82767 3.53795 -25.2228 -16.1356 -25.7292 -0.91539 -6.65522 -88.116 -57.0282 82.7545 -16.8886 24.4785 -16.2484 0.233631 -0.0996885 -8.21551 -0.453581 -0.131489 -6.79831 -0.139122 0.445581 2.27994 -9.30698 -0.0207633 2.26859 
32.9008 98.7662 28.1493 -158.528 -74.4509 -159.462 -175.653 -7.01342 90.6325 -22.9115 6.43743 -0.509274 77.4225 6.96722 -3.42765 13.8405 -2.59068 5.19698 169.256 -12.075 84.8952 -11.2396 -25.4176 -3.00333 72.1878 -7.14193 -5.12292 20.4134 0.220525 1.27381 0.365738 7.48921 -90.1399 11.8966 0.661418 -0.349975 0.225743 0.64538 -0.378746 -22.3107 0.736023 -0.135005 -2.29802 0.736028 -0.134996 90.6997 -30.7744 -105.092 42.7516 -15.7442 -3.50771 3.77863 -24.6851 -15.3794 -25.284 -0.76811 -7.30892 -88.0832 -56.7913 82.7626 -17.6782 24.0523 -15.6282 0.314733 -1.33662 -8.20142 -0.929153 -0.133745 -7.79219 -1.28033 0.874459 2.86223 -8.79194 0.343328 2.63289 
32.7666 98.6912 28.2325 -159.321 -73.072 -160.435 -175.403 -8.28392 90.6572 -23.4486 6.38919 -0.612133 77.8408 7.21558 -3.44749 14.0735 -2.4533 5.02278 168.779 -12.5594 84.3129 -13.0928 -26.8897 -2.97818 72.6822 -7.48552 -6.33578 20.9475 0.269751 1.07836 0.327681 7.52108 -90.166 11.8327 0.573614 -0.392049 0.161868 0.555807 -0.416922 -22.3742 0.664922 -0.201517 -2.3615 0.664923 -0.201529 90.5629 -30.7991 -105.352 42.5384 -15.5487 -2.62199 3.84036 -24.3035 -15.5587 -25.6114 -0.795855 -7.03057 -88.1217 -57.4412 82.8132 -17.0611 24.1002 -14.8275 0.499097 -0.0706262 -8.54627 -0.459215 -0.107457 -5.38365 -2.69332 1.749 4.67058 -8.60717 1.02289 3.00891 
32.2458 98.6269 28.4235 -159.006 -71.6391 -159.463 -174.173 -9.45508 92.2585 -24.0892 6.91756 -1.02614 78.4973 7.4964 -3.75637 14.4118 -2.75348 5.33901 169.18 -14.0019 84.9569 -13.4399 -26.8641 -3.07416 72.9893 -7.63367 -6.00992 20.7881 0.367882 0.916213 0.314565 7.4904 -90.2659 11.8941 0.500322 -0.584058 0.223102 0.474133 -0.605519 -22.3122 0.652719 -0.406691 -2.29958 0.652721 -0.406687 90.5117 -30.842 -105.438 42.5804 -14.8425 -2.02547 4.32112 -24.5505 -14.4599 -24.5019 -0.832907 -6.94843 -88.067 -57.392 82.8809 -17.8646 22.7365 -13.4163 0.932476 1.15253 -7.27838 -0.220633 -0.111089 -5.47874 -5.45103 3.02554 5.78556 -8.84442 2.23028 4.31702 
